<?xml version='1.0'?>
<!--
Bitly Generated QR Code
v5
37x37
-->
<svg width='720' height='720'
xmlns='http://www.w3.org/2000/svg'
xmlns:xlink='http://www.w3.org/1999/xlink'>
	<g id='background' style='fill:#ffffff' >
<rect x="0" y="0" width="720" height="720" />
</g>
<g id='pips' style='fill:#000000' >
<path d="M64,224L80,224L80,240L64,240L64,224M64,256L80,256L80,272L64,272L64,256M64,320L80,320L96,320L96,304L80,304L80,288L80,272L96,272L96,288L112,288L128,288L128,272L112,272L112,256L96,256L80,256L80,240L96,240L96,224L96,208L96,192L112,192L128,192L144,192L144,208L160,208L160,224L176,224L176,240L160,240L160,256L144,256L144,272L144,288L144,304L128,304L128,320L144,320L160,320L176,320L192,320L192,336L176,336L160,336L160,352L176,352L192,352L192,336L208,336L224,336L240,336L240,352L224,352L208,352L208,368L224,368L240,368L240,384L256,384L256,400L272,400L272,416L272,432L256,432L256,416L240,416L240,432L224,432L224,448L240,448L240,464L224,464L208,464L208,480L192,480L176,480L176,464L160,464L160,448L176,448L176,432L160,432L144,432L144,416L144,400L160,400L160,416L176,416L192,416L208,416L208,400L208,384L192,384L176,384L176,368L160,368L160,384L144,384L128,384L128,400L128,416L128,432L144,432L144,448L144,464L128,464L128,480L128,496L128,512L144,512L144,496L144,480L160,480L176,480L176,496L160,496L160,512L176,512L176,528L160,528L144,528L128,528L112,528L96,528L96,512L112,512L112,496L96,496L96,480L112,480L112,464L96,464L96,448L96,432L112,432L112,416L112,400L96,400L96,416L80,416L80,400L80,384L80,368L80,352L96,352L96,368L96,384L112,384L112,368L128,368L128,352L144,352L144,336L128,336L128,352L112,352L112,336L96,336L80,336L64,336L64,320M64,464L80,464L96,464L96,480L80,480L80,496L80,512L80,528L64,528L64,512L64,496L64,480L64,464M128,224L128,240L144,240L144,224L128,224M160,192L176,192L176,208L160,208L160,192M160,256L176,256L176,240L192,240L192,256L208,256L208,272L192,272L192,288L192,304L176,304L160,304L160,288L176,288L176,272L160,272L160,256M160,384L176,384L176,400L160,400L160,384M192,432L192,448L208,448L208,432L192,432M176,496L192,496L192,512L176,512L176,496M192,64L208,64L208,80L208,96L224,96L224,80L240,80L256,80L256,96L256,112L256,128L240,128L224,128L208,128L208,112L192,112L192,96L192,80L192,64M192,144L208,144L224,144L224,160L208,160L208,176L208,192L208,208L192,208L192,192L192,176L192,160L192,144M192,304L208,304L208,320L192,320L192,304M192,512L208,512L208,496L208,480L224,480L240,480L240,496L224,496L224,512L224,528L224,544L208,544L192,544L192,528L192,512M192,576L208,576L208,560L224,560L224,544L240,544L240,560L256,560L256,576L272,576L288,576L288,560L304,560L304,576L304,592L320,592L320,608L320,624L304,624L288,624L288,608L272,608L256,608L240,608L224,608L208,608L208,624L192,624L192,608L192,592L192,576M208,224L224,224L224,240L208,240L208,224M208,624L224,624L224,640L224,656L208,656L208,640L208,624M224,160L240,160L240,176L224,176L224,160M224,208L240,208L240,224L224,224L224,208M224,256L240,256L240,240L240,224L256,224L256,240L272,240L272,256L272,272L272,288L256,288L256,272L240,272L224,272L224,256M224,288L240,288L256,288L256,304L240,304L240,320L224,320L224,304L224,288M240,144L256,144L272,144L272,160L272,176L256,176L256,160L240,160L240,144M240,320L256,320L256,336L240,336L240,320M240,528L256,528L256,512L272,512L288,512L288,528L288,544L272,544L256,544L240,544L240,528M240,640L256,640L272,640L272,624L288,624L288,640L288,656L272,656L256,656L240,656L240,640M256,64L272,64L272,80L256,80L256,64M256,192L272,192L272,176L288,176L288,160L304,160L304,176L304,192L288,192L288,208L304,208L320,208L320,192L336,192L352,192L352,176L352,160L368,160L368,176L384,176L384,160L400,160L400,176L416,176L416,192L400,192L384,192L368,192L368,208L352,208L336,208L336,224L352,224L368,224L368,240L352,240L336,240L336,256L336,272L320,272L320,256L304,256L304,272L288,272L288,256L288,240L304,240L320,240L320,224L304,224L288,224L272,224L256,224L256,208L256,192M256,304L272,304L272,320L256,320L256,304M256,336L272,336L272,352L256,352L256,336M256,464L272,464L272,480L272,496L256,496L256,480L256,464M272,80L288,80L288,96L272,96L272,80M272,448L288,448L304,448L320,448L320,464L304,464L304,480L320,480L320,464L336,464L336,480L336,496L336,512L320,512L304,512L304,496L288,496L288,480L288,464L272,464L272,448M288,112L304,112L320,112L320,96L304,96L304,80L320,80L336,80L336,96L352,96L352,112L352,128L352,144L336,144L320,144L320,128L304,128L288,128L288,112M304,144L320,144L320,160L304,160L304,144M304,528L320,528L336,528L336,544L352,544L352,560L336,560L320,560L304,560L304,544L304,528M320,160L336,160L336,176L320,176L320,160M320,576L336,576L336,592L320,592L320,576M320,624L336,624L336,608L352,608L368,608L368,624L352,624L352,640L336,640L336,656L320,656L320,640L320,624M336,512L352,512L368,512L368,496L384,496L400,496L400,512L400,528L400,544L416,544L416,560L400,560L384,560L384,576L400,576L416,576L416,560L432,560L448,560L448,576L432,576L432,592L416,592L416,608L416,624L400,624L400,608L384,608L368,608L368,592L352,592L352,576L368,576L368,560L368,544L384,544L384,528L368,528L368,544L352,544L352,528L336,528L336,512M352,80L368,80L368,96L352,96L352,80M352,256L368,256L368,272L352,272L352,256M352,448L368,448L384,448L384,464L368,464L352,464L352,448M352,640L368,640L368,624L384,624L384,640L384,656L368,656L352,656L352,640M368,128L384,128L384,144L384,160L368,160L368,144L368,128M368,208L384,208L384,224L368,224L368,208M384,80L400,80L400,96L400,112L384,112L384,96L384,80M384,224L400,224L400,240L384,240L384,224M400,128L416,128L416,144L416,160L400,160L400,144L400,128M400,208L416,208L416,224L400,224L400,208M400,240L416,240L416,224L432,224L432,208L432,192L448,192L448,208L448,224L448,240L432,240L432,256L448,256L448,240L464,240L464,256L480,256L480,240L464,240L464,224L464,208L480,208L496,208L512,208L528,208L528,224L512,224L496,224L496,240L496,256L496,272L480,272L464,272L448,272L432,272L416,272L400,272L400,256L400,240M400,480L416,480L416,496L400,496L400,480M416,96L432,96L432,112L416,112L416,96M416,160L432,160L432,176L416,176L416,160M416,448L432,448L448,448L464,448L464,464L448,464L432,464L432,480L416,480L416,464L416,448M416,496L432,496L432,480L448,480L464,480L480,480L480,496L464,496L448,496L448,512L448,528L464,528L464,544L448,544L432,544L416,544L416,528L432,528L432,512L416,512L416,496M432,80L448,80L448,96L432,96L432,80M432,144L448,144L448,160L432,160L432,144M448,64L464,64L464,80L448,80L448,64M448,112L464,112L480,112L496,112L512,112L512,128L496,128L480,128L464,128L448,128L448,112M448,160L464,160L464,176L448,176L448,160M448,320L464,320L480,320L480,336L496,336L496,352L480,352L464,352L464,336L448,336L448,320M448,352L464,352L464,368L464,384L480,384L480,368L496,368L496,384L496,400L480,400L480,416L496,416L512,416L512,432L496,432L480,432L480,448L464,448L464,432L464,416L448,416L448,400L448,384L448,368L448,352M448,592L464,592L464,576L480,576L480,592L480,608L496,608L496,624L480,624L464,624L464,608L448,608L448,592M448,624L464,624L464,640L480,640L496,640L496,656L480,656L464,656L448,656L448,640L448,624M464,288L480,288L480,304L464,304L464,288M464,512L480,512L496,512L496,496L496,480L496,464L512,464L512,480L528,480L528,496L512,496L512,512L528,512L528,496L544,496L544,512L560,512L576,512L592,512L592,528L592,544L608,544L608,560L592,560L592,576L592,592L592,608L576,608L576,624L576,640L560,640L560,656L544,656L528,656L528,640L512,640L496,640L496,624L512,624L528,624L528,608L544,608L544,624L560,624L560,608L544,608L544,592L528,592L512,592L496,592L496,576L512,576L512,560L512,544L512,528L496,528L480,528L464,528L464,512M464,544L480,544L480,560L464,560L464,544M480,64L496,64L496,80L512,80L528,80L528,96L512,96L496,96L480,96L480,80L480,64M480,160L496,160L496,176L496,192L480,192L480,176L480,160M480,448L496,448L496,464L480,464L480,448M480,560L496,560L496,576L480,576L480,560M496,144L512,144L528,144L528,160L528,176L528,192L512,192L512,176L512,160L496,160L496,144M496,288L512,288L512,272L512,256L512,240L528,240L528,256L544,256L544,240L544,224L544,208L528,208L528,192L544,192L560,192L576,192L576,208L560,208L560,224L560,240L560,256L576,256L592,256L592,272L576,272L576,288L560,288L560,272L544,272L544,288L544,304L544,320L560,320L560,336L544,336L544,352L560,352L576,352L576,368L560,368L560,384L576,384L576,368L592,368L592,384L608,384L624,384L624,368L608,368L592,368L592,352L608,352L608,336L608,320L624,320L640,320L640,304L640,288L656,288L656,304L656,320L656,336L640,336L624,336L624,352L640,352L656,352L656,368L656,384L656,400L640,400L640,416L656,416L656,432L640,432L640,448L640,464L640,480L656,480L656,496L656,512L640,512L640,528L640,544L656,544L656,560L656,576L640,576L624,576L624,560L624,544L624,528L608,528L608,512L624,512L624,496L624,480L608,480L608,464L592,464L576,464L576,480L576,496L560,496L544,496L544,480L544,464L560,464L560,448L560,432L576,432L576,448L592,448L608,448L624,448L624,432L608,432L592,432L592,416L608,416L608,400L592,400L576,400L576,416L560,416L560,400L544,400L528,400L528,384L544,384L544,368L528,368L528,352L512,352L512,336L496,336L496,320L512,320L528,320L528,304L512,304L496,304L496,288M496,352L512,352L512,368L496,368L496,352M512,448L528,448L544,448L544,464L528,464L512,464L512,448M528,528L528,544L528,560L528,576L544,576L560,576L576,576L576,560L576,544L576,528L560,528L544,528L528,528M528,416L544,416L544,432L528,432L528,416M544,544L560,544L560,560L544,560L544,544M560,304L576,304L576,320L560,320L560,304M576,224L592,224L592,208L608,208L608,224L624,224L640,224L656,224L656,240L656,256L656,272L640,272L624,272L624,288L608,288L608,304L592,304L592,288L592,272L608,272L608,256L624,256L624,240L608,240L608,256L592,256L592,240L576,240L576,224M576,320L592,320L592,336L576,336L576,320M576,640L592,640L592,656L576,656L576,640M592,608L608,608L608,624L592,624L592,608M608,192L624,192L640,192L656,192L656,208L640,208L624,208L608,208L608,192M608,576L624,576L624,592L624,608L608,608L608,592L608,576M608,640L624,640L640,640L640,624L640,608L656,608L656,624L656,640L656,656L640,656L624,656L608,656L608,640Z" />
</g>
<g id='corners-outer-1' style='fill:#000000' >
<path d="M64,64L80,64L96,64L112,64L128,64L144,64L160,64L176,64L176,80L176,96L176,112L176,128L176,144L176,160L176,176L160,176L144,176L128,176L112,176L96,176L80,176L64,176L64,160L64,144L64,128L64,112L64,96L64,80L64,64M80,80L80,96L80,112L80,128L80,144L80,160L96,160L112,160L128,160L144,160L160,160L160,144L160,128L160,112L160,96L160,80L144,80L128,80L112,80L96,80L80,80Z" />
</g>
<g id='corners-outer-2' style='fill:#000000' >
<path d="M544,64L560,64L576,64L592,64L608,64L624,64L640,64L656,64L656,80L656,96L656,112L656,128L656,144L656,160L656,176L640,176L624,176L608,176L592,176L576,176L560,176L544,176L544,160L544,144L544,128L544,112L544,96L544,80L544,64M560,80L560,96L560,112L560,128L560,144L560,160L576,160L592,160L608,160L624,160L640,160L640,144L640,128L640,112L640,96L640,80L624,80L608,80L592,80L576,80L560,80Z" />
</g>
<g id='corners-outer-3' style='fill:#000000' >
<path d="M64,544L80,544L96,544L112,544L128,544L144,544L160,544L176,544L176,560L176,576L176,592L176,608L176,624L176,640L176,656L160,656L144,656L128,656L112,656L96,656L80,656L64,656L64,640L64,624L64,608L64,592L64,576L64,560L64,544M80,560L80,576L80,592L80,608L80,624L80,640L96,640L112,640L128,640L144,640L160,640L160,624L160,608L160,592L160,576L160,560L144,560L128,560L112,560L96,560L80,560Z" />
</g>
<g id='corners-inner-1' style='fill:#000000' >
<path d="M96,96L112,96L128,96L144,96L144,112L144,128L144,144L128,144L112,144L96,144L96,128L96,112L96,96Z" />
</g>
<g id='corners-inner-2' style='fill:#000000' >
<path d="M576,96L592,96L608,96L624,96L624,112L624,128L624,144L608,144L592,144L576,144L576,128L576,112L576,96Z" />
</g>
<g id='corners-inner-3' style='fill:#000000' >
<path d="M96,576L112,576L128,576L144,576L144,592L144,608L144,624L128,624L112,624L96,624L96,608L96,592L96,576Z" />
</g>
<g id='logo-svg' style='fill:#000000' >
<g transform='translate(280 280) scale(2.86 2.86)'>
<!-- Bitly Logo © Bitly Inc. -->
<path d="M9.31878 48.9865C3.10626 42.988 0 36.1445 0 28.4561C0 12.0273 12.7429 -6.10352e-05 27.9038 -6.10352e-05C43.222 -6.10352e-05 56 12.0273 56 28.4561C56 43.9845 42.2998 55.9999 30.3344 55.9999C25.3785 55.9999 21.7986 54.1257 19.9264 51.2073C19.2638 50.1744 18.6731 48.5091 18.5538 47.5C18.4743 46.8272 18.4743 44.5948 18.5538 40.803C18.5538 38.5939 18.5538 35.7708 18.5538 32.3338C18.6243 27.2183 19.1702 20.4505 17.1419 22.0106C16.5405 22.591 16.2984 23.1945 15.0104 23.2496C13.7215 23.1556 13.359 21.7746 13.572 21.0316C14.3367 18.365 16.5852 16.2288 20.1575 16.6144C23.7298 17 25.1038 19.3651 25.1982 22.558C25.1982 26.4187 25.1038 30.6312 25.1038 31.1207V31.5341C25.1214 31.9177 25.0658 32.228 25.5175 31.9709C25.9795 31.6568 26.378 31.3845 26.7129 31.1542C29.158 29.3012 35.1582 27.3465 39.8148 31.9709C41.5869 33.7308 43.7689 37.552 42.4984 43.4485C42.2943 44.0664 42.4578 44.1482 42.9889 43.6939C43.4275 43.2567 49.439 37.8413 49.439 27.5934C49.439 16.106 39.3669 6.51595 27.9038 6.51595C17.915 6.51595 6.4838 14.4679 6.4838 28.4561C6.4838 32.802 8.0413 38.1773 11.8543 42.3753C12.4772 43.0908 12.9493 43.5933 13.2706 43.8829C15.0104 45.3792 15.2394 47.2625 14.0834 48.631C12.5973 50.1303 11.0092 50.2488 9.31878 48.9865ZM30.4069 49.6219C35.5961 49.5381 36.433 44.1463 36.4609 41.1012C36.4609 36.6034 34.1732 35.011 30.7417 35.7094C27.9798 36.2682 25.1899 39.1456 24.8831 43.1406C24.8273 43.8111 24.7994 44.9006 24.8552 45.9342C24.9946 48.672 27.2823 49.6778 30.4069 49.6219Z" />
</g></g>
</svg>
